<svg xmlns="http://www.w3.org/2000/svg" width="128" height="128" viewBox="0 0 128 128" fill="none">
  <defs>
    <linearGradient id="wWordmark" x1="0" y1="0" x2="1" y2="0" gradientUnits="objectBoundingBox">
      <stop offset="0" stop-color="#F9FAFB"/>
      <stop offset="1" stop-color="#FFFFFF"/>
    </linearGradient>
    <linearGradient id="wCloche" x1="0.5" y1="1" x2="0.5" y2="0" gradientUnits="objectBoundingBox">
      <stop offset="0" stop-color="#E5E7EB"/>
      <stop offset="0.5" stop-color="#F3F4F6"/>
      <stop offset="1" stop-color="#FFFFFF"/>
    </linearGradient>
    <linearGradient id="wBtn" x1="0" y1="0" x2="1" y2="1" gradientUnits="objectBoundingBox">
      <stop offset="0" stop-color="#D1D5DB"/>
      <stop offset="1" stop-color="#E5E7EB"/>
    </linearGradient>
  </defs>

  <path d="M 4 28 L 22 28" stroke="#FFFFFF" stroke-width="2" stroke-linecap="round" opacity="0.95"/>
  <path d="M 2 34 L 24 34" stroke="#F9FAFB" stroke-width="2.5" stroke-linecap="round" opacity="0.9"/>
  <path d="M 5 40 L 20 40" stroke="#FFFFFF" stroke-width="1.8" stroke-linecap="round" opacity="0.85"/>

  <rect x="8" y="14" width="26" height="38" rx="4" fill="#F3F4F6" stroke="#E5E7EB" stroke-width="1"/>
  <rect x="11" y="18" width="20" height="16" rx="2" fill="#E5E7EB"/>
  <rect x="13" y="20" width="5" height="5" rx="1" fill="url(#wBtn)"/>
  <rect x="20" y="20" width="5" height="5" rx="1" fill="url(#wBtn)"/>
  <rect x="27" y="20" width="5" height="5" rx="1" fill="url(#wBtn)"/>
  <rect x="13" y="27" width="5" height="5" rx="1" fill="url(#wBtn)"/>
  <rect x="20" y="27" width="5" height="5" rx="1" fill="url(#wBtn)"/>
  <rect x="27" y="27" width="5" height="5" rx="1" fill="url(#wBtn)"/>
  <circle cx="16" cy="38" r="1.5" fill="#F9FAFB"/>
  <circle cx="22" cy="38" r="1.5" fill="#9CA3AF"/>

  <rect x="28" y="39" width="72" height="5" rx="2" fill="#9CA3AF"/>

  <ellipse cx="64" cy="26" rx="19" ry="14" fill="url(#wCloche)" stroke="#E5E7EB" stroke-width="1"/>
  <circle cx="64" cy="10" r="3" fill="url(#wCloche)" stroke="#D1D5DB" stroke-width="0.5"/>

  <text x="64" y="102" text-anchor="middle" font-family="Arial, system-ui, sans-serif" font-weight="800" font-size="28" fill="url(#wWordmark)" transform="rotate(2 64 102)">Ordera</text>
</svg>
